<svg width="20" height="18" viewBox="0 0 20 18" fill="none" xmlns="http://www.w3.org/2000/svg">
<mask id="path-1-inside-1_1_256" fill="white">
<path fill-rule="evenodd" clip-rule="evenodd" d="M8.39366 1.94013C6.4735 0.0199585 3.36029 0.0199581 1.44013 1.94012C-0.480042 3.86029 -0.480042 6.9735 1.44012 8.89366L7.83352 15.2871C8.02118 15.5212 8.22357 15.7475 8.44069 15.9646L9.59961 17.1236L17.7121 9.0111C19.6322 7.09093 19.6322 3.97772 17.7121 2.05756C15.7919 0.137391 12.6787 0.137391 10.7585 2.05756L9.63481 3.18128L8.39366 1.94013Z"/>
</mask>
<path d="M1.44013 1.94012L2.85434 3.35434L1.44013 1.94012ZM8.39366 1.94013L9.80788 0.525912L9.80788 0.525911L8.39366 1.94013ZM1.44012 8.89366L0.0259112 10.3079H0.0259113L1.44012 8.89366ZM7.83352 15.2871L9.39424 14.0364L9.32548 13.9506L9.24773 13.8728L7.83352 15.2871ZM8.44069 15.9646L7.02647 17.3788H7.02647L8.44069 15.9646ZM9.59961 17.1236L8.1854 18.5378L9.59961 19.952L11.0138 18.5378L9.59961 17.1236ZM17.7121 9.0111L19.1263 10.4253V10.4253L17.7121 9.0111ZM17.7121 2.05756L19.1263 0.643345V0.643345L17.7121 2.05756ZM10.7585 2.05756L12.1727 3.47177L12.1727 3.47177L10.7585 2.05756ZM9.63481 3.18128L8.2206 4.59549L9.63481 6.0097L11.049 4.59549L9.63481 3.18128ZM2.85434 3.35434C3.99346 2.21522 5.84033 2.21522 6.97945 3.35434L9.80788 0.525911C7.10666 -2.1753 2.72713 -2.1753 0.0259115 0.525911L2.85434 3.35434ZM2.85434 7.47945C1.71522 6.34033 1.71522 4.49346 2.85434 3.35434L0.0259116 0.525911C-2.6753 3.22713 -2.6753 7.60666 0.0259112 10.3079L2.85434 7.47945ZM9.24773 13.8728L2.85434 7.47945L0.0259113 10.3079L6.4193 16.7013L9.24773 13.8728ZM9.8549 14.5504C9.68968 14.3852 9.53618 14.2135 9.39424 14.0364L6.2728 16.5377C6.50617 16.8289 6.75746 17.1098 7.02647 17.3788L9.8549 14.5504ZM11.0138 15.7093L9.8549 14.5504L7.02647 17.3788L8.1854 18.5378L11.0138 15.7093ZM16.2979 7.59688L8.1854 15.7093L11.0138 18.5378L19.1263 10.4253L16.2979 7.59688ZM16.2979 3.47177C17.437 4.61089 17.437 6.45776 16.2979 7.59688L19.1263 10.4253C21.8275 7.72409 21.8275 3.34456 19.1263 0.643345L16.2979 3.47177ZM12.1727 3.47177C13.3119 2.33265 15.1587 2.33265 16.2979 3.47177L19.1263 0.643345C16.4251 -2.05787 12.0455 -2.05787 9.34432 0.643344L12.1727 3.47177ZM11.049 4.59549L12.1727 3.47177L9.34432 0.643344L8.2206 1.76706L11.049 4.59549ZM6.97945 3.35434L8.2206 4.59549L11.049 1.76706L9.80788 0.525912L6.97945 3.35434Z" fill="#FF6700" mask="url(#path-1-inside-1_1_256)"/>
</svg>
