<svg width="88" height="113" viewBox="0 0 88 113" fill="none" xmlns="http://www.w3.org/2000/svg">
<path d="M0 1.64964C0 0.738568 0.736429 0 1.64486 0H69.268C69.7039 0 70.1219 0.173504 70.4304 0.482404L88 18.08V111.35C88 112.261 87.2636 113 86.3551 113H1.64486C0.73643 113 0 112.261 0 111.35V1.64964Z" fill="#F1F1F1"/>
<path fill-rule="evenodd" clip-rule="evenodd" d="M42.3342 22.6409C42.0074 22.5893 41.4727 22.6506 40.6483 23.032C40.1638 23.2561 39.8317 23.7531 39.8426 24.8114C39.8535 25.8784 40.2276 27.3134 40.9341 29.0117C41.3503 30.0123 41.8721 31.0814 42.4787 32.19C42.5379 31.9596 42.6004 31.7084 42.6643 31.4404C42.9817 30.109 43.3248 28.3905 43.4482 26.79C43.5099 25.9898 43.5149 25.2395 43.4414 24.593C43.3668 23.9366 43.2175 23.4467 43.016 23.1235C42.8319 22.8282 42.6178 22.6857 42.3342 22.6409ZM43.5927 34.1151C43.6764 34.1393 43.6764 34.1392 43.6765 34.139L43.6775 34.1356L43.6804 34.1264L43.6908 34.0921C43.6999 34.0623 43.7129 34.0189 43.7295 33.9628C43.7627 33.8507 43.8101 33.688 43.8675 33.4828C43.9823 33.0727 44.1378 32.4918 44.3014 31.8055C44.6271 30.4389 44.991 28.6295 45.1235 26.9108C45.1898 26.0514 45.1999 25.1943 45.1113 24.4154C45.0239 23.6464 44.834 22.8928 44.4547 22.2844C44.058 21.648 43.4498 21.1706 42.605 21.0372C41.8034 20.9105 40.9038 21.1125 39.9236 21.566C38.6034 22.1766 38.1486 23.4535 38.1627 24.8275C38.1766 26.1927 38.6393 27.8483 39.3755 29.6182C39.9875 31.0894 40.8081 32.6854 41.7774 34.3266C41.7312 34.4317 41.6802 34.5474 41.6247 34.6728C41.3204 35.3608 40.8796 36.3443 40.3342 37.5249C39.2429 39.8872 37.7355 43.0331 36.0681 46.1758C35.7948 46.6908 35.5177 47.2049 35.2377 47.7149C34.1445 47.9776 33.1341 48.2487 32.2367 48.5221C30.7714 48.9684 29.5486 49.4377 28.762 49.9118C25.9015 51.6359 23.8266 53.9192 23.1986 55.9094C22.8808 56.9169 22.8975 57.9944 23.5963 58.8274C24.2821 59.6449 25.4387 60 26.8559 60C27.8322 60 28.7717 59.4267 29.6003 58.705C30.4592 57.9569 31.3494 56.9155 32.2381 55.7087C33.6052 53.8523 35.0196 51.5344 36.3643 49.1227C36.8386 49.0141 37.3279 48.9069 37.8301 48.8018C41.6885 47.9941 46.2671 47.3141 50.5068 46.9992C50.8668 46.9724 51.2236 46.9484 51.5767 46.9271C53.1771 48.5067 54.7788 49.867 56.2872 50.8728C57.8261 51.899 59.3566 52.617 60.7447 52.7503C61.4534 52.8183 62.149 52.736 62.7844 52.4418C63.4232 52.146 63.9439 51.6622 64.3418 51.018C65.0848 49.8148 65.252 48.6196 64.5673 47.6018C63.9462 46.6785 62.7587 46.1323 61.4338 45.7914C59.1338 45.1997 55.836 45.0853 52.2506 45.2625C50.8008 43.7867 49.3449 42.1214 47.9625 40.3695C46.3735 38.356 44.8973 36.2482 43.6507 34.2102L43.6642 34.1788L43.6765 34.139L43.5927 34.1151C43.5927 34.115 43.5928 34.1151 43.5927 34.1151ZM42.84 36.0518C42.5723 36.6494 42.2449 37.3721 41.868 38.1878C40.7695 40.5658 39.2487 43.7402 37.5627 46.9178C37.5075 47.0218 37.4521 47.1259 37.3966 47.23C37.4226 47.2245 37.4487 47.219 37.4748 47.2136C41.3154 46.4095 45.8521 45.7304 50.093 45.4006C48.9077 44.132 47.7393 42.765 46.627 41.3555C45.2675 39.6327 43.9806 37.8322 42.84 36.0518ZM53.865 46.8282C55.0278 47.8985 56.1671 48.8191 57.2407 49.535C58.6973 50.5062 59.9446 51.0404 60.9107 51.1332C61.3791 51.1782 61.7547 51.117 62.0589 50.9761C62.3596 50.8369 62.6468 50.594 62.8995 50.1847C63.4574 49.2812 63.3637 48.792 63.1592 48.4881C62.8911 48.0896 62.2267 47.6769 61.002 47.3618C59.251 46.9114 56.7462 46.7565 53.865 46.8282ZM34.1346 49.6745C33.6427 49.8065 33.177 49.9393 32.7413 50.0721C31.3028 50.5102 30.2488 50.9303 29.6505 51.291C26.971 52.9059 25.2687 54.9157 24.8055 56.3838C24.5777 57.1055 24.6868 57.5484 24.9009 57.8035C25.1279 58.0742 25.6711 58.375 26.8559 58.375C27.1806 58.375 27.7175 58.1582 28.4762 57.4974C29.2046 56.8629 30.013 55.9292 30.8697 54.7659C31.9368 53.3169 33.0457 51.5577 34.1346 49.6745Z" fill="#FF6700"/>
<path d="M70 0L88 18H72C70.8954 18 70 17.1046 70 16V0Z" fill="#E3E3E3"/>
<path d="M26.6921 78.914H29.7601C31.1294 78.914 32.2127 78.55 33.0101 77.822C33.8247 77.094 34.2321 76.184 34.2321 75.092C34.2321 73.8093 33.8161 72.7953 32.9841 72.05C32.1521 71.2873 30.9821 70.906 29.4741 70.906H26.6921V78.914ZM25.0801 69.476H29.2921C31.3374 69.476 32.9407 69.996 34.1021 71.036C35.2807 72.0586 35.8701 73.4106 35.8701 75.092C35.8701 76.548 35.2981 77.7873 34.1541 78.81C33.0274 79.8326 31.5021 80.344 29.5781 80.344H26.6921V87H25.0801V69.476Z" fill="#424242"/>
<path d="M40.7331 85.518H44.2431C45.4391 85.518 46.4964 85.31 47.4151 84.894C48.3338 84.478 49.0618 83.9146 49.5991 83.204C50.1364 82.4933 50.5351 81.7133 50.7951 80.864C51.0724 80.0146 51.2111 79.1046 51.2111 78.134C51.2111 76.1406 50.5438 74.4506 49.2091 73.064C47.8918 71.66 46.1931 70.958 44.1131 70.958H40.7331V85.518ZM39.1211 69.476H44.1131C46.6784 69.476 48.7844 70.2733 50.4311 71.868C52.0778 73.4626 52.9011 75.5513 52.9011 78.134C52.9011 79.7113 52.5978 81.1586 51.9911 82.476C51.3844 83.776 50.4051 84.8593 49.0531 85.726C47.7184 86.5753 46.1151 87 44.2431 87H39.1211V69.476Z" fill="#424242"/>
<path d="M65.4922 70.958H57.7702V77.64H64.5822V79.122H57.7702V87H56.1582V69.476H65.4922V70.958Z" fill="#424242"/>
</svg>
