<svg width="37" height="24" viewBox="0 0 37 24" fill="none" xmlns="http://www.w3.org/2000/svg">
<path fill-rule="evenodd" clip-rule="evenodd" d="M1 0C0.447715 0 0 0.447716 0 1V23C0 23.5523 0.447715 24 0.999999 24H36C36.5523 24 37 23.5523 37 23V1C37 0.447715 36.5523 0 36 0H1ZM14.1732 6.41076C14.1732 5.08476 14.6706 4.34708 16.0813 4.68315L15.9982 5.21584C14.9768 4.92778 14.8417 5.53857 14.8417 6.40886L15.7409 6.41305L15.7406 6.92973L14.8417 6.93812V10.1518L14.1732 10.1514V6.94383L13.6504 6.93697L13.6508 6.41229L14.1732 6.41076ZM28.7547 6.89059C30.2795 6.59529 30.5144 9.39894 29.1409 9.67558C27.5368 9.99869 27.3888 7.15503 28.7547 6.89059ZM27.935 9.70373C27.8836 9.63207 27.8414 9.57333 27.7876 9.54374L27.7511 10.1519H27.1885L27.198 4.67373L27.86 4.66992L27.8684 7.01062C27.9601 6.94854 28.0134 6.87659 28.0688 6.80164C28.1692 6.66588 28.2769 6.52032 28.634 6.40592C29.0093 6.28589 29.4406 6.30189 29.7999 6.47184C31.0292 7.05291 31.0672 9.46715 29.7115 10.094C29.3557 10.2586 28.9281 10.286 28.5566 10.1702C28.1868 10.0547 28.0411 9.85165 27.935 9.70373ZM24.2076 13.7619C24.1461 14.0218 24.0786 14.3075 24.0542 14.5237C23.3876 14.2817 22.8803 14.1007 22.1454 14.1792C21.5273 14.2448 20.8641 14.7649 21.544 15.2884C21.8017 15.4868 22.0987 15.6439 22.3961 15.8012C23.0827 16.1643 23.7714 16.5285 23.9821 17.4051C24.2822 18.6534 23.4449 19.7713 22.31 20.1943C21.6081 20.456 21.0553 20.4781 20.3159 20.4724C19.741 20.4678 19.3432 20.3518 18.8876 20.2188C18.7369 20.1749 18.58 20.1291 18.4082 20.0849L18.7584 18.403C18.9167 18.443 19.0619 18.5048 19.2171 18.5708C19.5891 18.7292 20.0182 18.9118 20.8212 18.8763C21.4556 18.8481 22.4584 18.3561 21.7667 17.689C21.5072 17.4386 21.1589 17.258 20.8031 17.0736C20.0604 16.6887 19.2853 16.287 19.2179 15.1977C19.1276 13.7388 20.4145 12.8635 21.6931 12.6341C22.4455 12.4993 23.2293 12.5534 23.9624 12.7622L24.038 12.7836C24.2523 12.844 24.3483 12.871 24.3781 12.931C24.4024 12.9797 24.383 13.0502 24.3478 13.1778L24.3477 13.1779C24.3276 13.2511 24.3022 13.3431 24.2769 13.4606C24.2571 13.5522 24.2329 13.6547 24.2076 13.7616L24.2076 13.7619ZM28.0281 14.8073L28.6041 17.6452L26.9798 17.6391L28.0281 14.8073ZM25.9687 20.3574C26.0417 20.3182 26.1525 19.9687 26.2205 19.754L26.2205 19.7539C26.2391 19.6954 26.2544 19.6469 26.265 19.6175C26.2891 19.5505 26.3078 19.4941 26.3236 19.4469C26.3655 19.3209 26.3861 19.259 26.4289 19.23C26.4702 19.202 26.5322 19.2046 26.6539 19.2096C26.7171 19.2122 26.7965 19.2155 26.8975 19.2155C27.1012 19.2155 27.3049 19.2153 27.5086 19.2151H27.5089H27.5091H27.5093H27.5096H27.5098H27.51H27.5103H27.5105H27.5107H27.511H27.5112H27.5114H27.5117H27.5119H27.5121H27.5124C27.9861 19.2146 28.4593 19.2141 28.9307 19.2162L29.1622 20.3574L30.9974 20.3567L29.4118 12.7078C28.8795 12.6914 28.3002 12.6933 27.7667 12.7028C27.25 12.7127 27.0147 12.9383 26.8262 13.3971C26.6531 13.8192 26.4767 14.2399 26.3003 14.6607C26.1533 15.0113 26.0064 15.362 25.8613 15.7134C25.6514 16.2217 25.4203 16.751 25.1862 17.2871L25.1861 17.2871L25.1861 17.2871L25.1861 17.2871L25.1861 17.2871L25.1861 17.2871L25.1861 17.2871L25.1861 17.2872L25.1861 17.2872L25.1861 17.2872L25.1861 17.2872C24.7355 18.3189 24.2739 19.3758 23.9316 20.3574H25.9687ZM10.578 20.3574C10.9397 20.3561 11.3014 20.3565 11.6631 20.357C11.844 20.3572 12.0249 20.3574 12.2057 20.3574C12.3055 20.3574 12.3816 20.3632 12.4416 20.3677C12.6428 20.383 12.6616 20.3844 12.7767 20.1071L13.9601 17.2718C14.1461 16.8288 14.3458 16.3698 14.5484 15.9041L14.5484 15.9041L14.5486 15.9036L14.5487 15.9034L14.5488 15.9031L14.5489 15.9029C15.014 14.834 15.4944 13.7299 15.8598 12.7035L13.7894 12.7055L11.7349 17.8692C11.6218 17.4428 11.531 16.8989 11.4459 16.3888L11.4459 16.3887L11.4458 16.3886L11.4458 16.3885L11.4458 16.3884L11.4458 16.3883L11.4458 16.3882C11.406 16.1501 11.3675 15.9194 11.3285 15.7114C11.2766 15.434 11.2243 15.1564 11.1721 14.8789L11.1721 14.8788L11.1721 14.8787L11.1721 14.8787L11.1721 14.8786L11.1721 14.8785L11.172 14.8781C11.0885 14.4345 11.0052 13.9915 10.9233 13.551C10.7602 12.6743 10.1516 12.6864 9.46661 12.7001C9.38049 12.7018 9.29315 12.7035 9.20534 12.7035C8.92063 12.7035 8.63592 12.7038 8.35123 12.7041H8.35115H8.35106H8.35098H8.3509H8.35081H8.35073H8.35064H8.35056H8.35047H8.35039H8.35031H8.35022H8.35014H8.35005H8.34997H8.34988H8.3498C7.781 12.7046 7.21231 12.7051 6.64395 12.7035L6.60449 12.9314C7.13073 13.0328 8.28679 13.3646 8.7049 13.6794C8.97126 13.8799 9.19694 14.8717 9.33518 15.4792L9.33518 15.4792L9.33519 15.4793C9.36688 15.6186 9.39398 15.7376 9.41591 15.8223C9.53192 16.2695 9.65622 16.7281 9.78175 17.1913M10.578 20.3574C10.3624 19.334 10.0689 18.2509 9.78182 17.1916L10.578 20.3574ZM16.0273 20.3573H16.0286L16.5022 20.3575L16.6107 20.3577C16.8759 20.3585 16.9933 20.3589 17.0539 20.3004C17.102 20.254 17.1143 20.1704 17.1364 20.0206C17.1503 19.9264 17.1681 19.806 17.201 19.6522C17.3665 18.8813 17.5304 18.112 17.6924 17.3458C17.7699 16.978 17.8471 16.6155 17.9241 16.254L17.9249 16.2502L17.9251 16.2492L17.9252 16.2489L17.9252 16.2487C18.0121 15.8407 18.0987 15.434 18.1852 15.0226C18.2339 14.7914 18.2936 14.5383 18.3551 14.278L18.3552 14.2776L18.3552 14.2776L18.3552 14.2775L18.3553 14.2771L18.3553 14.277L18.3553 14.277C18.4821 13.7403 18.616 13.173 18.675 12.7036L16.7063 12.7067L15.082 20.3575C15.3959 20.357 15.7099 20.3571 16.024 20.3573H16.0267H16.0268H16.0268H16.0269H16.0269H16.0269H16.027H16.027H16.0271H16.0271H16.0271H16.0272H16.0272H16.0273ZM22.8418 6.87635C23.697 6.75404 23.9842 7.46314 23.9823 8.18139C23.98 8.87259 23.9049 9.63085 23.0205 9.68762C21.5412 9.78288 21.4566 7.07373 22.8418 6.87635ZM23.9496 6.88417C23.634 5.94245 21.0889 6.03404 21.1781 8.4344C21.2282 9.78441 22.2901 10.548 23.3437 10.1331C23.6787 10.0013 23.7541 9.89307 23.8541 9.74948C23.9028 9.67955 23.9574 9.60125 24.0506 9.50778L24.0908 10.1506L24.688 10.1517L24.6732 9.65867L24.673 9.65825L24.6628 4.67127C24.5706 4.64231 24.0865 4.64879 23.9764 4.66441C23.9541 4.817 23.9616 5.72994 23.9667 6.33791V6.33812L23.9667 6.33857V6.33888V6.33923C23.9681 6.51407 23.9694 6.66358 23.9696 6.76239L23.9698 6.78898C23.9703 6.83296 23.9705 6.84542 23.9496 6.88417ZM23.9492 6.90449L23.9495 6.90459C23.95 6.90475 23.9526 6.90395 23.9592 6.90196L23.9592 6.90195C23.9653 6.9001 23.9748 6.89722 23.9891 6.89312V6.77727L24.6476 4.67664L23.9891 4.67702V6.77727L23.9492 6.90449ZM4.66378 9.46169L4.66382 9.46159L4.63477 9.41309L4.67778 9.42824L4.67782 9.42816L6.12185 4.94604L6.84576 4.94719L5.00031 10.1476L4.2487 10.1517L2.56641 4.97729V4.95176L3.28159 4.94719L4.63456 9.41292L4.66378 9.46169ZM18.2926 7.91917C18.2486 6.52153 20.4332 6.44457 20.2511 7.92146L18.2926 7.91917ZM19.5453 8.40672H19.5458L20.1805 8.40689C20.2537 8.40689 20.3296 8.41295 20.4036 8.41886C20.6658 8.43978 20.9045 8.45882 20.9139 8.19999C20.9788 6.44266 19.3739 5.86616 18.3563 6.66023C16.7643 7.9024 17.7538 11.2064 20.7007 10.0015L20.5903 9.51418C19.5241 9.84263 18.3153 9.84035 18.2763 8.40689C18.6987 8.40639 19.1211 8.40656 19.5435 8.40672H19.5453ZM7.22097 7.91935C7.17772 6.52095 9.35705 6.44436 9.17948 7.92163L7.22097 7.91935ZM9.10891 8.40707H7.20428C7.22363 9.85691 8.47037 9.81804 9.51792 9.51436L9.6287 10.0089C6.26297 11.0423 5.88584 7.69644 7.29534 6.65164C8.15356 6.01532 9.37146 6.295 9.72697 7.36608C9.81689 7.63624 9.85255 7.91554 9.84193 8.19941C9.83247 8.45891 9.59654 8.44008 9.33395 8.41912L9.33395 8.41912C9.25956 8.41318 9.18303 8.40707 9.10891 8.40707ZM34.2138 6.45643V6.41223L33.4982 6.41376L32.5136 9.37897L31.463 6.41261L30.7217 6.41223C30.8956 6.97238 31.1748 7.63073 31.4398 8.25558L31.4398 8.2556C31.5661 8.55352 31.6892 8.84382 31.7962 9.11224C31.8414 9.22598 31.8887 9.32709 31.9323 9.42052L31.9324 9.42055L31.9324 9.42057C32.1027 9.78501 32.2183 10.0325 31.9498 10.4562C31.6495 10.9299 31.371 11.065 31.1559 11.1693C31.0696 11.2111 30.9936 11.248 30.9304 11.2998L31.0912 11.8595C32.3703 11.6169 33.0575 9.62382 33.6143 8.00874L33.6144 8.00868C33.8244 7.39938 34.016 6.84386 34.2138 6.45643ZM10.3811 10.1515L11.0325 10.1519C11.0834 9.95988 11.0706 9.62263 11.0559 9.23733V9.23732C11.0152 8.16935 10.9605 6.73232 12.2102 6.99581L12.1882 6.345C11.4882 6.23715 11.1994 6.74516 11.0493 7.00928C11.0122 7.07457 10.9836 7.12496 10.9593 7.14746L10.9354 6.41245L10.3613 6.41207L10.3811 10.1515ZM17.0867 10.1517H16.4053V6.41187L17.0867 6.41225V10.1517ZM12.6094 10.1517H13.2904V6.41225L12.6094 6.41187V10.1517ZM17.1508 5.47921C17.3033 4.90804 16.4553 4.72628 16.3347 5.25478C16.203 5.83052 17.0157 5.98408 17.1508 5.47921ZM12.5329 5.45972C12.6152 5.95278 13.4606 5.87428 13.3581 5.27682C13.269 4.75595 12.4316 4.85235 12.5329 5.45972Z" fill="white"/>
</svg>
