<svg width="37" height="24" viewBox="0 0 37 24" fill="none" xmlns="http://www.w3.org/2000/svg">
<path fill-rule="evenodd" clip-rule="evenodd" d="M2 0C0.89543 0 0 0.89543 0 2V22C0 23.1046 0.895432 24 2 24H35C36.1046 24 37 23.1046 37 22V2C37 0.895431 36.1046 0 35 0H2ZM33.3034 10.3019C33.3034 9.97099 33.5686 9.69302 33.8868 9.69302C34.2183 9.69302 34.4702 9.97099 34.4702 10.3019C34.4702 10.6328 34.2183 10.9108 33.8868 10.9108C33.5686 10.924 33.3034 10.6461 33.3034 10.3019ZM33.8868 10.7784C34.1387 10.7784 34.3243 10.5666 34.3243 10.3151C34.3243 10.0636 34.1254 9.85186 33.8868 9.85186C33.6349 9.85186 33.4492 10.0636 33.4492 10.3151C33.4492 10.5666 33.6481 10.7784 33.8868 10.7784ZM33.8072 10.5799H33.6879V10.0372H33.9133C33.9531 10.0372 34.0061 10.0372 34.0459 10.0636C34.0857 10.0901 34.1122 10.1431 34.1122 10.196C34.1122 10.2622 34.0724 10.3151 34.0194 10.3284L34.1122 10.5666H33.9796L33.9 10.3549H33.8072V10.5799ZM33.8072 10.2754H33.8735C33.9 10.2754 33.9266 10.2754 33.9398 10.2622C33.9531 10.249 33.9663 10.2225 33.9663 10.196C33.9663 10.1828 33.9531 10.1563 33.9398 10.1431C33.9266 10.1298 33.8868 10.1298 33.8735 10.1298H33.8072C33.8205 10.1431 33.8072 10.2754 33.8072 10.2754ZM24.9633 6.23826L24.8042 7.28395C24.4595 7.09864 24.2075 7.03246 23.9291 7.03246C23.1998 7.03246 22.696 7.77371 22.696 8.8194C22.696 9.54742 23.0407 9.98423 23.6109 9.98423C23.8495 9.98423 24.1147 9.90481 24.4462 9.73273L24.2738 10.8314C23.9158 10.9373 23.6772 10.977 23.412 10.977C22.3645 10.977 21.7015 10.1828 21.7015 8.91206C21.7015 7.20453 22.6032 6 23.9026 6C24.0749 6 24.2208 6.01324 24.3401 6.05295L24.7512 6.15884C24.7976 6.17869 24.8274 6.18862 24.8572 6.19855C24.8871 6.20848 24.9169 6.2184 24.9633 6.23826ZM21.7148 6.95304C21.6883 6.9398 21.6485 6.9398 21.622 6.9398C21.3038 6.9398 21.1181 7.11188 20.8132 7.57516L20.906 6.97951H20.0176L19.421 10.8711H20.4021C20.7601 8.48849 20.8397 8.07815 21.317 8.07815H21.3833C21.4761 7.61487 21.5822 7.27072 21.7546 6.95304H21.7148ZM15.8807 10.8181C15.6156 10.9108 15.4034 10.9505 15.178 10.9505C14.6874 10.9505 14.409 10.6461 14.409 10.0901C14.409 9.99492 14.4197 9.88903 14.4315 9.77244L14.4355 9.73273L14.5018 9.34887L14.5416 9.04443L14.9659 6.38386H15.9338L15.8145 6.95304H16.3183L16.1725 7.89284H15.6951L15.4299 9.54742C15.4167 9.6136 15.4167 9.66655 15.4167 9.70626C15.4167 9.90481 15.5227 9.99746 15.7482 9.99746C15.8675 9.99746 15.947 9.98423 16.0133 9.95775L15.8807 10.8181ZM12.0223 8.21052C12.0223 8.70027 12.2477 9.04443 12.7648 9.29592C13.1493 9.49447 13.2289 9.54742 13.2289 9.73273C13.2289 9.97099 13.0565 10.0901 12.672 10.0901C12.3803 10.0901 12.1151 10.0504 11.7969 9.93128L11.6643 10.8314L11.7041 10.8446L11.8765 10.8843C11.9428 10.8976 12.0223 10.9108 12.1284 10.924C12.2272 10.9298 12.3184 10.9382 12.4008 10.9457L12.4008 10.9457H12.4008C12.5064 10.9554 12.5976 10.9637 12.672 10.9637C13.693 10.9637 14.1703 10.5534 14.1703 9.66655C14.1703 9.13708 13.9714 8.8194 13.4808 8.58114C13.0698 8.38259 13.03 8.34288 13.03 8.15757C13.03 7.94578 13.1891 7.83989 13.5073 7.83989C13.7062 7.83989 13.9582 7.86636 14.2101 7.90607L14.3559 7.00598C14.0775 6.95304 13.7858 6.92656 13.4941 6.92656C12.3936 6.90009 12.0223 7.4825 12.0223 8.21052ZM32.7465 10.8711H31.8183L31.8581 10.4872C31.5929 10.7917 31.3145 10.924 30.9565 10.924C30.2405 10.924 29.7764 10.2754 29.7764 9.30916C29.7764 8.01197 30.5057 6.91333 31.3675 6.91333C31.752 6.91333 32.0305 7.0854 32.3089 7.44279L32.5211 6.07942H33.489L32.7465 10.8711ZM31.3012 9.95775C31.7653 9.95775 32.0835 9.41505 32.0835 8.64733C32.0835 8.15757 31.8979 7.8796 31.5664 7.8796C31.1289 7.8796 30.8106 8.4223 30.8106 9.19003C30.7974 9.69302 30.9697 9.95775 31.3012 9.95775ZM18.9701 10.7917C18.6387 10.8976 18.3072 10.9505 17.9624 10.9505C16.8752 10.9505 16.305 10.3549 16.305 9.20327C16.305 7.86636 17.0343 6.88685 18.0155 6.88685C18.8243 6.88685 19.3281 7.44279 19.3281 8.30317C19.3281 8.58114 19.2884 8.87235 19.2088 9.26945H17.2597C17.2464 9.33563 17.2464 9.3621 17.2464 9.38858C17.2464 9.85186 17.5382 10.0769 18.1083 10.0769C18.453 10.0769 18.7713 9.99746 19.1293 9.82539C19.116 9.82539 18.9701 10.7917 18.9701 10.7917ZM18.4265 8.46201C18.4398 8.38261 18.4398 8.31643 18.4398 8.26349V8.26346C18.4398 7.94579 18.2674 7.76047 17.9757 7.76047C17.6707 7.76047 17.4453 8.01197 17.3525 8.46201H18.4265ZM8.09758 10.8711H7.12966L7.68655 7.1913L6.42692 10.8711H5.76396L5.6844 7.21777L5.08774 10.8711H4.17285L4.95515 6.07942H6.36062L6.4004 9.04443L7.34181 6.07942H8.86662L8.09758 10.8711ZM10.6168 9.13708C10.5108 9.12385 10.471 9.12385 10.3914 9.12385C9.83454 9.12385 9.5561 9.3224 9.5561 9.71949C9.5561 9.95775 9.70195 10.1166 9.9141 10.1166C10.3119 10.1034 10.6036 9.70626 10.6168 9.13708ZM11.3328 10.8711H10.524L10.5373 10.4607C10.2854 10.7917 9.96713 10.924 9.51632 10.924C8.98595 10.924 8.62795 10.4872 8.62795 9.8651C8.62795 8.91206 9.26439 8.36936 10.3384 8.36936C10.4468 8.36936 10.5661 8.38028 10.6963 8.3922L10.6964 8.3922L10.7362 8.39583L10.7475 8.3397L10.7475 8.33968C10.7665 8.24674 10.7759 8.20026 10.7759 8.14433C10.7759 7.89284 10.6036 7.78695 10.1528 7.78695C9.87432 7.78695 9.5561 7.82665 9.34395 7.90607L9.1981 7.94578L9.10528 7.97226L9.23788 7.09864C9.72847 6.95304 10.0467 6.88685 10.4047 6.88685C11.24 6.88685 11.6908 7.28395 11.6908 8.0252C11.6908 8.22375 11.6776 8.35612 11.6113 8.80617L11.4124 10.196L11.3726 10.4475L11.3461 10.6461L11.3328 10.7917C11.3461 10.7652 11.3328 10.8711 11.3328 10.8711ZM26.4218 9.12385H26.4218C25.8649 9.12385 25.5865 9.3224 25.5865 9.71949C25.5865 9.95775 25.7324 10.1166 25.9445 10.1166C26.3423 10.1034 26.634 9.70626 26.6472 9.13708C26.5544 9.12385 26.5014 9.12385 26.4218 9.12385ZM27.35 10.8711H26.5412L26.5544 10.4607C26.3025 10.7917 25.9843 10.924 25.5335 10.924C25.0031 10.924 24.6451 10.4872 24.6451 9.8651C24.6451 8.91206 25.2815 8.36936 26.3555 8.36936C26.4616 8.36936 26.6074 8.38259 26.7533 8.39583L26.7533 8.39583L26.7647 8.33968L26.7647 8.33966C26.7836 8.24673 26.7931 8.20026 26.7931 8.14433C26.7931 7.89284 26.6207 7.78695 26.1699 7.78695C25.8915 7.78695 25.5732 7.82665 25.3611 7.90607L25.2152 7.94578L25.1224 7.97226L25.255 7.09864C25.7456 6.95304 26.0638 6.88685 26.4218 6.88685C27.2572 6.88685 27.708 7.28395 27.708 8.0252C27.708 8.22375 27.6947 8.35612 27.6284 8.80617L27.4295 10.1828L27.403 10.4343L27.3765 10.6328L27.3632 10.7652L27.35 10.8711ZM30.0814 6.95304C30.0549 6.9398 30.0151 6.9398 29.9886 6.9398C29.6703 6.9398 29.4847 7.11188 29.1798 7.57516L29.2726 6.97951H28.3842L27.7875 10.8711H28.7687C29.1267 8.48849 29.2063 8.07815 29.6836 8.07815H29.7499C29.8162 7.68105 29.9488 7.31043 30.1212 6.95304H30.0814ZM25.9838 14.6435C25.9838 15.5304 25.7054 16.0466 25.2811 16.0466C24.9628 16.0598 24.7772 15.7024 24.7772 15.1862C24.7772 14.5641 25.0557 13.8626 25.5065 13.8626C25.8645 13.8626 25.9838 14.2464 25.9838 14.6435ZM26.9517 14.6568C26.9517 13.6772 26.4611 12.9095 25.5595 12.9095C24.512 12.9095 23.8225 13.8361 23.8225 15.1995C23.8225 16.179 24.2336 16.9864 25.2148 16.9864C26.2092 16.9864 26.9517 16.2849 26.9517 14.6568ZM24.1275 12.2345L23.9817 13.2801C23.6502 13.0948 23.4248 13.0286 23.1728 13.0286C22.4966 13.0286 22.0193 13.7699 22.0193 14.8156C22.0193 15.5436 22.3375 15.9804 22.8679 15.9804C23.0933 15.9804 23.3452 15.901 23.6502 15.7289L23.4911 16.8276C23.1596 16.9335 22.9342 16.9732 22.6822 16.9732C21.7011 16.9732 21.0779 16.179 21.0779 14.9083C21.0779 13.2007 21.9265 11.9962 23.1331 11.9962C23.2922 11.9962 23.4248 12.0094 23.5441 12.0491L23.9154 12.155C24.0214 12.1815 24.048 12.1947 24.1275 12.2345ZM18.0946 12.936C18.068 12.9228 18.0283 12.9228 18.0017 12.9228C17.6968 12.9228 17.5377 13.0948 17.246 13.5581L17.3388 12.9625H16.5167L15.9598 16.854H16.8747C17.2062 14.4714 17.2857 14.0611 17.7233 14.0611C17.7498 14.0611 17.7498 14.0611 17.7896 14.0743C17.8692 13.6111 17.9885 13.2669 18.1343 12.9492L18.0946 12.936ZM30.0013 16.8276H29.1395L29.1793 16.4437C28.9273 16.7481 28.6622 16.8805 28.3307 16.8805C27.6677 16.8805 27.2302 16.2319 27.2302 15.2656C27.2302 13.9685 27.9064 12.8698 28.7152 12.8698C29.0732 12.8698 29.3384 13.0419 29.5903 13.4125L29.7892 12.0491H30.6908L30.0013 16.8276ZM28.6489 15.9142C29.0865 15.9142 29.3782 15.3715 29.3782 14.6038C29.3782 14.1141 29.2058 13.8493 28.8876 13.8493C28.4765 13.8493 28.1848 14.392 28.1848 15.1597C28.1848 15.6495 28.3439 15.9142 28.6489 15.9142ZM9.54236 16.8143C9.23739 16.9202 8.91917 16.9732 8.60095 16.9732C7.57999 16.9732 7.04962 16.3775 7.04962 15.2259C7.04962 13.889 7.72584 12.9095 8.64073 12.9095C9.39651 12.9095 9.87384 13.4522 9.87384 14.3258C9.87384 14.6038 9.83406 14.895 9.7545 15.2921H7.95125C7.93799 15.3583 7.93799 15.3848 7.93799 15.4112C7.93799 15.8613 8.21643 16.0863 8.7468 16.0863C9.07828 16.0863 9.36999 16.0069 9.68821 15.8348L9.54236 16.8143ZM9.02525 14.4979C9.02525 14.4542 9.02927 14.4145 9.03288 14.3788C9.03583 14.3496 9.03851 14.3232 9.03851 14.2994C9.03851 13.9817 8.8794 13.7964 8.60095 13.7964C8.30925 13.7964 8.11036 14.0479 8.01755 14.4979H9.02525ZM20.3884 16.8143C20.0834 16.9202 19.7652 16.9732 19.447 16.9732C18.426 16.9732 17.8957 16.3775 17.8957 15.2259C17.8957 13.889 18.5719 12.9095 19.4868 12.9095C20.2426 12.9095 20.7199 13.4522 20.7199 14.3258C20.7199 14.6038 20.6801 14.895 20.6006 15.2921H18.784C18.7708 15.3583 18.7708 15.3848 18.7708 15.4112C18.7708 15.8613 19.0492 16.0863 19.5796 16.0863C19.9111 16.0863 20.2028 16.0069 20.521 15.8348L20.3884 16.8143ZM19.8846 14.4979C19.8978 14.4185 19.8978 14.3523 19.8978 14.2994V14.2994C19.8978 13.9817 19.7387 13.7964 19.4603 13.7964C19.1686 13.7964 18.9697 14.0479 18.8769 14.4979H19.8846ZM33.1173 16.8143C32.8123 16.9202 32.4941 16.9732 32.1759 16.9732C31.1549 16.9732 30.6245 16.3775 30.6245 15.2259C30.6245 13.889 31.3007 12.9095 32.2289 12.9095C32.9847 12.9095 33.462 13.4522 33.462 14.3258C33.462 14.6038 33.4222 14.895 33.3427 15.2921H31.5262C31.5129 15.3583 31.5129 15.3848 31.5129 15.4112C31.5129 15.8613 31.7913 16.0863 32.3217 16.0863C32.6532 16.0863 32.9449 16.0069 33.2631 15.8348L33.1173 16.8143ZM32.6078 14.3789L32.6078 14.3788C32.6107 14.3496 32.6134 14.3232 32.6134 14.2994C32.6134 13.9817 32.4543 13.7964 32.1759 13.7964C31.8841 13.7964 31.6853 14.0479 31.5924 14.4979H32.6002C32.6002 14.4543 32.6042 14.4146 32.6078 14.3789ZM6.83747 13.1213C6.6651 13.0022 6.41318 12.8963 6.0817 12.8963C5.71044 12.8963 5.41874 12.9757 5.41874 13.3596C5.41874 13.6385 5.63867 13.7631 5.90028 13.9113C6.28422 14.1288 6.75792 14.3972 6.75792 15.2789C6.75792 16.629 5.86955 16.9864 5.074 16.9864C4.716 16.9864 4.30496 16.8673 4 16.7349L4.22541 15.7422C4.41104 15.9142 4.76904 16.0201 5.08726 16.0201C5.37896 16.0201 5.81651 15.9407 5.81651 15.4377C5.81651 15.1022 5.56934 14.9646 5.28738 14.8076C4.91302 14.5991 4.47733 14.3566 4.47733 13.5714C4.47733 12.3139 5.25963 11.9432 6.02866 11.9432C6.45296 11.9432 6.86399 12.0094 7.0894 12.1683L6.83747 13.1213ZM12.2075 16.8143C12.0218 16.907 11.7699 16.9599 11.3986 16.9599C10.6031 16.9599 10.1125 16.1657 10.1125 15.1995C10.1125 13.9287 10.8285 12.9228 11.876 12.9228C12.1014 12.9228 12.4594 13.0154 12.7378 13.1743L12.5389 14.1008C12.3401 13.9685 12.1412 13.889 11.929 13.889C11.4384 13.889 11.0937 14.3391 11.0937 15.1333C11.0937 15.5966 11.3456 15.9672 11.7434 15.9672C11.9821 15.9672 12.1544 15.9142 12.3533 15.7951L12.2075 16.8143ZM15.6283 15.8348C15.5936 16.0518 15.5702 16.2745 15.547 16.4954L15.547 16.4955C15.5348 16.6114 15.5227 16.7269 15.509 16.8408H14.6339L14.7002 16.2187H14.6869C14.4085 16.6423 14.13 16.9335 13.6262 16.9335C13.0826 16.9335 12.7776 16.351 12.7776 15.5966C12.7776 15.3318 12.7909 15.1862 12.8439 14.7891L13.0958 12.9889H14.077L13.8118 14.8024C13.805 14.8537 13.7972 14.9042 13.7895 14.9544L13.7895 14.9544C13.7674 15.0985 13.7455 15.241 13.7455 15.398C13.7455 15.623 13.8516 15.8613 14.1168 15.8348C14.5146 15.8348 14.7532 15.3451 14.8195 14.7759L15.098 12.9889H16.0394L15.6283 15.8348ZM34.0189 16.7879H33.873V16.1525H33.6609V16.0069H34.231V16.1525H34.0189V16.7879ZM35.0001 16.7879H34.8542V16.1393L34.7216 16.7879H34.5758L34.4432 16.1393V16.7879H34.2973V16.0069H34.5227L34.6421 16.629H34.6553L34.7747 16.0069H34.9868C35.0001 16.0069 35.0001 16.7879 35.0001 16.7879Z" fill="white"/>
</svg>
