<svg width="37" height="24" viewBox="0 0 37 24" fill="none" xmlns="http://www.w3.org/2000/svg">
<path fill-rule="evenodd" clip-rule="evenodd" d="M1 0C0.447715 0 0 0.447716 0 1V23C0 23.5523 0.447715 24 0.999999 24H36C36.5523 24 37 23.5523 37 23V1C37 0.447715 36.5523 0 36 0H1ZM12.8697 7.78569L14.0458 12.4165L14.0459 12.4166L14.2028 11.8634C14.2797 11.5534 14.3833 11.1531 14.4953 10.7201C14.7715 9.65253 15.099 8.38636 15.2052 7.78577H16.9617L16.952 7.99318C16.3354 7.99366 16.3431 8.35071 16.3576 9.01783C16.36 9.12744 16.3625 9.24541 16.3625 9.37156C16.3625 9.47986 16.3612 9.69791 16.3594 9.98501C16.3513 11.3178 16.3339 14.1388 16.399 14.3772C16.4776 14.6647 16.6601 14.6845 16.7652 14.6959C16.783 14.6978 16.7985 14.6995 16.811 14.7022C16.8517 14.711 16.8837 14.7087 16.9078 14.7069C16.9713 14.7023 16.9807 14.7016 16.952 14.9173H14.7381C14.6773 14.7015 14.7488 14.7005 14.8589 14.699C14.8965 14.6984 14.9386 14.6978 14.9814 14.6887C15.3294 14.6141 15.3236 14.2407 15.3181 13.8863C15.3175 13.8459 15.3169 13.8059 15.3168 13.7665C15.3157 13.2843 15.3222 12.7112 15.329 12.1131C15.3431 10.8698 15.3584 9.51847 15.309 8.65128C15.307 8.6541 15.3047 8.65638 15.3026 8.65863C15.2971 8.66418 15.292 8.66949 15.2899 8.68221C15.288 8.69395 15.2823 8.70032 15.2775 8.70558C15.2751 8.70825 15.273 8.71064 15.2717 8.71329C15.1954 8.87608 14.8758 10.189 14.5407 11.5656C14.1592 13.1328 13.7576 14.7826 13.6719 14.9119C13.5517 14.8629 13.3449 13.955 13.2536 13.5541C13.2381 13.486 13.226 13.4326 13.2181 13.4004C13.0833 12.8491 12.0712 8.82808 11.9713 8.62553C11.9265 8.9844 11.9514 13.0316 11.9557 13.725C11.9612 14.5869 12.2269 14.6384 12.4102 14.6739C12.525 14.6962 12.6075 14.7122 12.5733 14.9172H11.1234C11.0933 14.7064 11.1569 14.698 11.2551 14.685C11.3611 14.671 11.5075 14.6516 11.6201 14.3663C11.7414 14.0593 11.7188 12.5879 11.7067 11.8021C11.704 11.6295 11.7019 11.49 11.7019 11.4032C11.7019 11.3343 11.7028 11.1981 11.7039 11.02C11.709 10.2247 11.7196 8.59287 11.6813 8.37866C11.6359 8.12358 11.5051 8.03901 11.3115 8.00346C11.1698 7.9775 11.1444 7.98119 11.1443 7.98111C11.1443 7.98101 11.176 7.97622 11.1131 7.92032V7.78569H12.8697ZM3.4787 10.9084C3.47619 10.914 3.4728 10.9217 3.45232 10.9259V10.926C3.28537 10.9601 3.40128 11.1872 3.45122 11.285C3.45444 11.2913 3.45739 11.2971 3.45997 11.3023C3.42734 11.2444 3.35218 11.1508 3.26633 11.0439C3.09003 10.8244 2.86861 10.5487 2.8777 10.4109C2.89991 10.0719 3.45152 10.3455 3.75723 10.4971C3.81254 10.5245 3.85981 10.5479 3.89443 10.563L4.1375 10.669C4.76714 10.9435 5.40554 11.2218 6.02955 11.4929C6.2582 11.5922 6.49007 11.6932 6.72329 11.7947C7.20416 12.0042 7.69076 12.2161 8.16663 12.421C8.52355 12.5746 8.86392 12.7223 9.22076 12.8789C9.29934 12.9134 9.37275 12.9492 9.44206 12.983C9.78171 13.1488 10.023 13.2666 10.2934 12.9423C10.0295 13.6961 9.74148 13.5623 9.14803 13.2867C9.02897 13.2314 8.89762 13.1704 8.75171 13.1097L3.63253 10.9503C3.4853 10.8934 3.48396 10.8965 3.4787 10.9084ZM2.4936 9.85203C2.50513 9.8804 2.51773 9.91139 2.53093 9.94692V9.947C2.48074 9.86831 2.41263 9.77434 2.33983 9.6739C2.11631 9.36551 1.84857 8.99612 1.91961 8.82067C2.04998 8.49838 2.66234 8.82272 3.00831 9.00596C3.07923 9.04352 3.13897 9.07516 3.18105 9.09408C3.91135 9.42263 4.69231 9.79834 5.47424 10.1745C6.38563 10.613 7.29835 11.052 8.13368 11.4178L9.9952 12.2956C10.2599 12.4078 10.4648 12.3096 10.5675 12.082C10.5742 12.5761 10.346 12.9399 9.83591 12.7062C9.67856 12.6341 9.51851 12.5631 9.35969 12.4927C9.1666 12.407 8.97532 12.3221 8.79294 12.2371L4.58391 10.3561C4.52086 10.3277 4.42035 10.2806 4.29632 10.2224C3.72 9.95213 2.6358 9.44364 2.44207 9.47526C2.41364 9.65528 2.44358 9.72896 2.4936 9.85203ZM1.61489 8.19446C1.63804 8.27619 1.66605 8.3751 1.68059 8.48548C1.53567 8.30349 0.957379 7.39916 1.00259 7.1829C1.06924 6.86438 1.42924 7.03728 1.65237 7.14445C1.66791 7.15191 1.68277 7.15905 1.69683 7.16569C2.60388 7.59424 3.52134 8.04372 4.43768 8.49265C5.5361 9.03079 6.63291 9.56813 7.7082 10.0677C7.81026 10.1151 7.98243 10.2017 8.19309 10.3076C8.94688 10.6865 10.1934 11.3132 10.4836 11.2813C10.4925 11.2668 10.5032 11.2487 10.5148 11.2289C10.5569 11.1569 10.6121 11.0629 10.645 11.0404C10.6839 11.9899 10.5867 11.9789 9.63133 11.5491C9.24239 11.374 8.8622 11.199 8.48146 11.0234C7.92863 10.7685 7.33535 10.5019 6.73452 10.232C5.75528 9.79215 4.75599 9.34325 3.87912 8.92063C3.67922 8.82422 3.47932 8.73517 3.27804 8.6455C3.09619 8.56449 2.91321 8.48297 2.72809 8.39508C1.50765 7.81578 1.5227 7.86892 1.61489 8.19446ZM9.79522 10.6359C9.21264 10.3608 5.27471 8.49034 5.14018 8.37651H5.14025C5.48453 8.0375 6.34782 7.7546 6.97062 7.7546C8.12774 7.7546 8.79474 8.06978 9.52529 8.7125C9.95358 9.08922 10.7304 10.3241 10.5498 10.8281C10.3066 10.9022 10.1241 10.8064 9.93108 10.7049C9.88665 10.6815 9.84165 10.6579 9.79522 10.6359ZM27.3575 12.2061C27.0728 12.4959 26.6991 12.8965 26.6991 13.5178V13.5179C26.6991 14.3965 27.3688 14.0766 27.3688 13.6837V12.3569L27.3575 12.2061ZM28.5622 14.1162C28.5622 14.1162 28.5623 14.1161 28.5623 14.1161L28.5621 14.1162C28.5622 14.1162 28.5622 14.1162 28.5622 14.1162ZM28.5343 14.1635C28.5441 14.1457 28.5532 14.1291 28.5622 14.1162C28.6806 14.2508 28.6764 14.2776 28.4894 14.5878C28.1473 15.1549 27.5448 15.2199 27.3764 14.254L27.3232 14.2994C27.28 14.3409 27.2329 14.3993 27.1802 14.4646C27.0204 14.6629 26.8093 14.9247 26.501 14.9701C25.7856 15.0755 25.4759 13.6443 26.3676 12.6716C26.5267 12.4981 27.1416 11.9348 27.3662 11.828C27.3672 11.7733 27.3691 11.7118 27.3711 11.6456C27.3851 11.1976 27.4057 10.5363 27.1794 10.3425C26.9574 10.1523 26.6529 10.3209 26.5922 10.5057C26.5513 10.6304 26.6074 10.7825 26.6689 10.9494C26.7727 11.2307 26.8919 11.554 26.5877 11.8587C26.3024 12.1443 25.7755 11.8325 25.9021 11.0335C26.0948 9.81643 27.438 9.63126 27.8686 10.0947C28.3417 10.604 28.2975 11.9561 28.2638 12.9872C28.2417 13.6655 28.2241 14.2049 28.3612 14.2741C28.4494 14.3186 28.4967 14.2322 28.5343 14.1635ZM30.3814 10.2259C30.3038 10.2489 30.2037 10.2785 30.1841 10.9886L30.184 10.9884C30.1757 11.2917 30.1777 11.6013 30.1798 11.9089C30.1807 12.0449 30.1816 12.1806 30.1816 12.3152H30.953C30.953 12.2665 30.9538 12.1887 30.9549 12.0916C30.9604 11.5945 30.9715 10.5921 30.9011 10.3984C30.8492 10.2558 30.794 10.2392 30.7494 10.2258C30.6979 10.2103 30.6605 10.1991 30.6585 10.0036L32.1614 9.99275C32.1589 10.2018 32.1089 10.2163 32.0495 10.2335C31.9588 10.2598 31.8462 10.2924 31.8464 11.03L31.8467 13.7665C31.8466 13.7931 31.8464 13.8211 31.8462 13.8499C31.845 14.035 31.8435 14.2581 31.8754 14.4231C31.9155 14.6307 31.9986 14.6544 32.0649 14.6733C32.1337 14.693 32.1842 14.7074 32.1492 14.9172L30.6661 14.9161C30.6509 14.7191 30.6904 14.7006 30.7489 14.6731C30.7886 14.6545 30.837 14.6318 30.8833 14.5468C30.9764 14.3755 30.962 13.3049 30.9552 12.799C30.954 12.7051 30.953 12.6306 30.953 12.585H30.1814C30.1815 12.6337 30.1806 12.7092 30.1796 12.8029C30.1743 13.2998 30.1635 14.3061 30.2433 14.5137C30.2953 14.6489 30.3525 14.6697 30.3967 14.6858C30.4494 14.705 30.4836 14.7175 30.4685 14.9095L28.9857 14.9178C28.9514 14.7201 28.9733 14.7131 29.0321 14.6942C29.056 14.6865 29.0859 14.6769 29.1206 14.6518C29.3006 14.5216 29.2995 14.2992 29.2981 13.9844C29.2978 13.9286 29.2975 13.8698 29.2982 13.8082C29.3032 13.3768 29.3277 10.6685 29.2521 10.4236C29.2001 10.2554 29.1345 10.2388 29.08 10.225C29.0203 10.2099 28.9739 10.1982 28.9733 9.99355L30.4762 9.99506C30.4742 10.1985 30.4327 10.2107 30.3814 10.2259ZM17.2489 9.67456C17.2433 9.66234 17.2459 9.64627 17.2459 9.57897V7.786C17.3828 7.7859 17.6185 7.78453 17.9085 7.78285C18.9737 7.77666 20.7711 7.76622 21.0943 7.79868V9.70882C21.009 9.71184 20.9791 9.72737 20.966 9.71837C20.9515 9.70837 20.9579 9.66805 20.9326 9.54652C20.9232 9.50162 20.917 9.45668 20.9106 9.41061C20.904 9.36286 20.8973 9.31391 20.8866 9.26251C20.6742 8.23112 20.4 8.21079 19.6827 8.21079V13.9324C19.6827 14.4955 19.7433 14.71 20.292 14.71L20.282 14.9174H19.0735C18.8468 14.9174 18.6687 14.925 18.5291 14.9311C18.122 14.9486 18.0419 14.9521 18.0379 14.71C18.6048 14.7084 18.6469 14.4619 18.6469 13.891V8.21079H18.3425C17.6429 8.21079 17.5263 8.85609 17.4452 9.3049C17.4054 9.52538 17.3741 9.69844 17.2865 9.72428C17.264 9.69223 17.2536 9.68472 17.2489 9.67456ZM34.4532 11.3365C34.4697 11.3086 34.4836 11.285 34.4944 11.2668L34.4946 11.2667C34.6225 11.0511 34.9251 10.5109 34.6246 10.2893C34.5032 10.1998 34.4521 10.223 34.4307 10.2068C34.4128 10.1933 34.4158 10.1521 34.4158 9.99347L35.7461 9.99674C35.746 10.207 35.7266 10.2101 35.6606 10.2205C35.5958 10.2307 35.4861 10.2481 35.3058 10.4767C35.1655 10.6547 35.0433 10.8488 34.9278 11.0443C34.7121 11.4091 34.5945 11.5149 34.5744 11.6367C34.5546 11.7569 34.6296 11.8928 34.7988 12.3084C34.8161 12.351 34.846 12.427 34.885 12.5263C35.1118 13.103 35.6471 14.4647 35.8254 14.6188C35.8834 14.6688 35.9236 14.6875 35.9507 14.7001C36.0055 14.7255 36.0067 14.7261 35.9923 14.9094L34.4764 14.9178C34.4621 14.7652 34.4584 14.7309 34.4721 14.7212C34.4864 14.7111 34.5193 14.7275 34.5787 14.6657C34.729 14.5092 34.6246 14.2767 34.5026 14.005C34.4749 13.9433 34.4463 13.8796 34.4196 13.8143C34.3922 13.7474 34.3573 13.6549 34.3181 13.5509C34.2011 13.2408 34.0457 12.8288 33.936 12.6912C33.7411 13.0207 33.7434 13.0915 33.7564 13.4814C33.76 13.5893 33.7644 13.7218 33.7656 13.8909C33.7667 14.0475 33.7703 14.3764 33.8193 14.508C33.8742 14.6554 33.9415 14.6694 33.9949 14.6804C34.0566 14.6931 34.0996 14.702 34.0833 14.9095L32.5674 14.9178C32.5483 14.7135 32.6015 14.6922 32.6685 14.6653C32.7431 14.6353 32.8349 14.5984 32.8629 14.2939L32.8652 8.46651C32.838 8.06981 32.7494 8.05205 32.6741 8.03699C32.6113 8.02441 32.5579 8.01371 32.5575 7.78584L33.766 7.78808L33.7662 12.4033C33.8766 12.3133 34.2901 11.6127 34.4532 11.3365ZM9.05343 14.4016C8.08214 15.0354 6.86606 15.1877 5.77664 14.7356C4.67394 14.2782 3.49214 13.0221 3.56366 11.3667L9.77539 13.7665C9.70672 13.8247 9.63695 13.8993 9.5675 13.9737C9.52757 14.0164 9.48775 14.059 9.4483 14.0983C9.32875 14.2176 9.21069 14.299 9.05343 14.4016ZM24.205 11.8123C24.115 10.8932 23.935 10.3355 22.9752 10.3355C22.9399 10.6293 22.8879 14.1124 23.0416 14.3591C23.2951 14.7661 24.471 14.5314 24.205 11.8123ZM24.7264 9.51847C24.7164 9.43126 24.7016 9.30257 24.653 9.10843V9.10851C24.4194 8.17547 24.0833 8.18447 23.344 8.20427C23.2273 8.20739 23.1006 8.21079 22.9626 8.21079V9.91073C23.8559 9.91073 24.6628 10.1004 25.0053 10.6975C25.3665 11.327 25.3919 12.4003 25.2854 13.1812C25.0354 15.0166 23.9462 14.9841 22.2899 14.9349C22.0041 14.9264 21.7015 14.9174 21.3833 14.9174C21.3393 14.708 21.3652 14.7067 21.4667 14.7018C21.5205 14.6991 21.5956 14.6955 21.6928 14.6593C21.8173 14.6129 21.87 14.5257 21.9108 14.378C21.9655 14.1805 21.9615 13.8244 21.9584 13.5522C21.9578 13.4948 21.9572 13.4411 21.9572 13.3934C21.9571 13.285 21.9586 13.0721 21.9605 12.7923C21.9698 11.449 21.9896 8.5643 21.9059 8.30589C21.8661 8.18345 21.7891 8.08118 21.6797 8.03869C21.5731 7.9973 21.5029 7.99845 21.4567 7.99921C21.3778 8.00051 21.369 8.00065 21.3682 7.78584H24.9016L24.8915 9.72396C24.7469 9.69677 24.7439 9.67122 24.7264 9.51847Z" fill="white"/>
</svg>
