<svg width="37" height="24" viewBox="0 0 37 24" fill="none" xmlns="http://www.w3.org/2000/svg">
<path fill-rule="evenodd" clip-rule="evenodd" d="M2 0C0.89543 0 0 0.89543 0 2V22C0 23.1046 0.895432 24 2 24H35C36.1046 24 37 23.1046 37 22V2C37 0.895431 36.1046 0 35 0H2ZM19.3647 3.00049L17.3677 4.99027V4.24291H14.5273V7.04795L14.0088 6.53126L12.0003 8.5325L14.1047 10.6293H13.2715V13.4595H16.1094L15.5684 13.9985L17.5768 15.9998L19.6328 13.9512V14.7813H22.4732V11.8478L22.991 12.3637L24.9995 10.3625L22.9883 8.35851H23.7994V5.52833H20.8447L21.3732 5.00172L19.3647 3.00049ZM20.0863 9.46939L21.3094 10.6881H19.6328V12.2598L18.4731 11.1042L17.3794 12.194V10.6293H15.7055L16.9136 9.42556L15.8201 8.33607H17.3677V6.79931L18.4684 7.89603L19.6914 6.67745V8.35851H21.2012L20.0863 9.46939ZM10.2974 18.0868C10.4544 18.0868 10.5969 18.1119 10.7251 18.1623C10.8564 18.2127 10.9685 18.2805 11.0614 18.3655C11.1543 18.4505 11.2264 18.5513 11.2777 18.6679C11.3289 18.7812 11.3546 18.9025 11.3546 19.0316C11.3546 19.1608 11.3289 19.2836 11.2777 19.4001C11.2264 19.5135 11.1543 19.6127 11.0614 19.6978C10.9685 19.7828 10.8564 19.8505 10.7251 19.9009C10.5969 19.9513 10.4544 19.9765 10.2974 19.9765H9V17.0001H11.1143V17.6616H9.69676V18.0868H10.2974ZM10.2734 19.386C10.3823 19.386 10.4736 19.3513 10.5473 19.282C10.621 19.2096 10.6578 19.1261 10.6578 19.0316C10.6578 18.9371 10.621 18.8553 10.5473 18.786C10.4736 18.7135 10.3823 18.6773 10.2734 18.6773H9.69676V19.386H10.2734ZM11.7874 17.0001H13.9498V17.6616H12.4842V18.134H13.8296V18.7954H12.4842V19.3151H13.9978V19.9765H11.7874V17.0001ZM16.999 19.9765V17.0001H14.8607L14.6925 18.9371C14.6797 19.0789 14.6348 19.1891 14.558 19.2679C14.4843 19.3466 14.393 19.386 14.2841 19.386H14.188V19.9765C14.2136 19.9828 14.2424 19.9875 14.2745 19.9907C14.3001 19.9938 14.3305 19.9954 14.3658 19.9954C14.401 19.9986 14.4378 20.0001 14.4763 20.0001C14.7294 20.0001 14.9344 19.9214 15.0913 19.7639C15.2483 19.6033 15.3396 19.3749 15.3652 19.0789L15.4854 17.6616H16.3023V19.9765H16.999ZM18.2702 19.9765H17.5734V17.0001H18.2702V18.2757L19.1832 17.0001H19.976L18.9093 18.4647L20.0009 19.9138L21.0593 17.0001H21.78L22.8612 19.9765H22.1404L21.9482 19.4096H20.8911L20.6989 19.9765H20.0481H19.9781H19.2552L18.2702 18.6537V19.9765ZM21.4196 17.8269L21.756 18.819H21.0833L21.4196 17.8269ZM24.302 17.0001C24.459 17.0001 24.6032 17.0269 24.7345 17.0805C24.8659 17.1308 24.9796 17.2033 25.0757 17.2978C25.1718 17.3891 25.2471 17.4962 25.3015 17.619C25.356 17.7419 25.3832 17.8742 25.3832 18.0159C25.3832 18.1576 25.356 18.2899 25.3015 18.4127C25.2471 18.5356 25.1718 18.6442 25.0757 18.7387C24.9796 18.8301 24.8659 18.9025 24.7345 18.956C24.6032 19.0064 24.459 19.0316 24.302 19.0316H23.8215V19.9765H23.1248V17.0001H24.302ZM24.302 18.3702C24.411 18.3702 24.5023 18.3356 24.5759 18.2663C24.6496 18.1938 24.6865 18.1104 24.6865 18.0159C24.6865 17.9214 24.6496 17.8395 24.5759 17.7702C24.5023 17.6978 24.411 17.6616 24.302 17.6616H23.8215V18.3702H24.302ZM26.4383 19.9765H27.1351V17.6616H28V17.0001H25.5734V17.6616H26.4383V19.9765Z" fill="white"/>
</svg>
