<svg width="37" height="24" viewBox="0 0 37 24" fill="none" xmlns="http://www.w3.org/2000/svg">
<path fill-rule="evenodd" clip-rule="evenodd" d="M2 0C0.89543 0 0 0.89543 0 2V22C0 23.1046 0.895432 24 2 24H35C36.1046 24 37 23.1046 37 22V2C37 0.895431 36.1046 0 35 0H2ZM7.92953 10.2381L7.92954 10.2381L7.92956 10.2381C8.15954 9.9678 8.53238 9.52963 8.57556 9.36784L6.12951 6.36303C6.08704 6.31065 6.04649 6.26564 6.01168 6.22701C5.93981 6.14725 5.89242 6.09466 5.90322 6.06039C5.92411 5.99406 6.16307 5.99642 6.86463 6.00336H6.86468C7.15072 6.00618 7.51365 6.00977 7.97005 6.00977C8.61519 6.00977 8.78234 6.18284 9.07936 6.55192C9.12767 6.61194 9.173 6.67134 9.21802 6.73035L9.21802 6.73035L9.21803 6.73036L9.21804 6.73037L9.21805 6.73039C9.29045 6.82527 9.36206 6.91913 9.44409 7.01292C9.58316 7.17196 9.68309 7.29254 9.81771 7.46502C10.096 7.82145 10.333 8.10304 10.5273 8.33397L10.5273 8.33398L10.5274 8.334C10.9468 8.83245 11.1677 9.0949 11.1767 9.36446C11.1868 9.66423 10.9349 9.97278 10.4028 10.6245L10.2948 10.7568C9.81357 11.3473 9.28201 11.9871 8.73932 12.6402L8.7393 12.6403C7.7639 13.8142 6.75257 15.0314 5.93281 16.0836C5.85256 16.1866 5.77248 16.2817 5.69104 16.3784L5.69102 16.3784C5.61588 16.4676 5.53958 16.5582 5.46094 16.6577C5.36706 16.7764 5.2873 16.879 5.21839 16.9677C4.94823 17.3154 4.84479 17.4485 4.7108 17.4967C4.62767 17.5266 4.53277 17.5239 4.37901 17.5195H4.37897H4.37893H4.37888C4.31951 17.5178 4.25137 17.5158 4.17174 17.5154C3.69276 17.513 3.21334 17.5137 2.734 17.5145H2.73365H2.73358H2.73351H2.73345H2.73338H2.73331L2.72979 17.5145C2.49468 17.5149 2.25959 17.5153 2.02459 17.5153C2.0775 17.3173 3.88265 15.1504 4.81599 14.03L4.81602 14.03C5.05258 13.746 5.23312 13.5293 5.31495 13.4289L5.94497 12.6561L5.94546 12.6555C6.28591 12.2379 6.62319 11.8243 6.97125 11.3969C7.11092 11.2254 7.24615 11.0624 7.38189 10.8988L7.38191 10.8988L7.38193 10.8987C7.51659 10.7364 7.65175 10.5735 7.79223 10.4011C7.82448 10.3616 7.87263 10.305 7.92953 10.2381ZM7.64026 17.5153H6.09891L9.80461 12.9634C9.87634 12.8743 9.94224 12.7968 10.0075 12.72L10.0075 12.72L10.0075 12.72L10.0076 12.7199C10.0645 12.6529 10.121 12.5865 10.1804 12.5134C10.221 12.4635 10.3083 12.3588 10.4237 12.2205L10.4237 12.2205C10.924 11.6204 11.9522 10.3872 11.9892 10.2486C12.1616 10.2946 12.3633 10.5556 12.5463 10.7925L12.5463 10.7925L12.5464 10.7926C12.5878 10.8462 12.6282 10.8985 12.6672 10.9469C12.7049 10.9937 12.7458 11.0413 12.7876 11.09C13.104 11.4582 13.4773 11.8928 12.9581 12.5385C12.5155 13.0889 12.0421 13.6554 11.5676 14.2232C10.9433 14.9703 10.317 15.7198 9.75617 16.4382C9.70537 16.5033 9.65784 16.5644 9.61316 16.6219L9.61271 16.6225L9.61237 16.623L9.61236 16.623C9.23531 17.1083 9.06123 17.3324 8.83264 17.4347C8.6366 17.5224 8.40046 17.5205 7.96181 17.5169H7.96179H7.9617H7.96161H7.96151H7.96139H7.96127C7.86466 17.5161 7.75824 17.5153 7.64026 17.5153ZM22.5587 13.1111C20.9976 13.1111 20.9976 10.689 22.5587 10.689C24.0269 10.689 23.9897 13.1111 22.5587 13.1111ZM21.4072 9.91896C21.4121 9.81385 21.4151 9.74692 21.3843 9.70473C21.3303 9.63075 21.1721 9.63286 20.7365 9.63866H20.7365H20.7365C20.5889 9.64063 20.4095 9.64302 20.1915 9.64302V15.8086H21.4026V13.6616C21.4902 13.7203 21.5647 13.7778 21.6351 13.8322L21.6352 13.8322C21.9122 14.0462 22.1271 14.2121 22.8339 14.2121C24.5103 14.2121 25.6253 11.9622 24.3531 10.3258C23.7297 9.52381 22.4093 9.35104 21.6704 9.91078C21.6104 9.95616 21.588 9.98374 21.5719 10.0035C21.5453 10.0363 21.5359 10.0477 21.4026 10.0834C21.4026 10.0202 21.4051 9.96579 21.4072 9.91896ZM17.384 10.634H17.2189C16.6382 10.634 16.4311 11.0208 16.2279 11.4047H18.3749C18.2799 10.9967 17.8833 10.634 17.384 10.634ZM18.6625 13.8392C17.1273 14.7995 14.9618 13.827 14.9618 11.9002C14.9618 10.4839 16.0238 9.58806 17.384 9.58806C18.6175 9.58806 19.641 10.6517 19.641 11.735C19.641 11.7879 19.6413 11.8363 19.6416 11.8807V11.8809V11.8812V11.8814C19.6433 12.1261 19.6441 12.2459 19.5847 12.3027C19.5278 12.3571 19.4154 12.3537 19.1955 12.3468H19.1954C19.106 12.3441 18.9988 12.3407 18.8703 12.3405H16.2279C16.4747 13.3995 18.2043 13.4057 18.4299 12.5607C18.6335 12.6082 18.7795 12.6808 18.9255 12.7535C19.0714 12.8261 19.2174 12.8987 19.4209 12.9461C19.3926 13.2857 18.9144 13.6816 18.6625 13.8392ZM25.421 9.80809V14.1021H26.6321C26.6652 13.978 26.7054 13.9354 26.7642 13.8731C26.7898 13.8459 26.8189 13.815 26.8525 13.772L27.3553 13.1187C27.4013 13.0612 27.4433 13.0036 27.4854 12.946C27.5274 12.8884 27.5694 12.8307 27.6154 12.7733C27.7416 12.6156 27.8546 12.4665 27.9696 12.3147L27.9697 12.3146L27.9697 12.3145C28.0184 12.2503 28.0674 12.1856 28.1179 12.1196L28.6689 11.4596V14.1021H29.825V9.64302C29.6379 9.64302 29.4853 9.63755 29.3575 9.63297L29.3574 9.63297C29.098 9.62367 28.9408 9.61804 28.805 9.6692C28.596 9.74793 28.4377 9.96115 28.0358 10.5025C27.9415 10.6294 27.8339 10.7745 27.709 10.94C27.6817 10.9763 27.6435 11.0276 27.5977 11.0892L27.5974 11.0895L27.5974 11.0896C27.3253 11.4555 26.7832 12.1842 26.6321 12.2854L26.6331 10.1925C26.6341 10.1192 26.6368 10.0554 26.6392 9.99999C26.6457 9.8473 26.6495 9.75759 26.6071 9.70554C26.5467 9.63141 26.3925 9.63368 26.0188 9.63916H26.0187L26.0186 9.63917C25.8985 9.64093 25.7558 9.64302 25.5862 9.64302C25.4593 9.64302 25.421 9.68128 25.421 9.80809ZM30.7061 14.1021V9.80813C30.7061 9.68132 30.7445 9.64307 30.8713 9.64307H34.835C34.9618 9.64307 35.0001 9.68132 35.0001 9.80813V14.1021H33.789V10.7441H31.9173V14.1021H30.7061ZM5.82342 11.0744C6.10324 10.9996 7.15631 9.59707 7.30971 9.36786C7.11539 9.23768 5.01499 6.63269 4.8088 6.36384C4.78612 6.33426 4.76578 6.30704 4.74706 6.28199C4.57101 6.04641 4.53872 6.0032 4.06333 6.00821C3.54343 6.01381 3.02202 6.01242 2.50105 6.01103H2.50089C2.26868 6.01041 2.03655 6.00979 1.80469 6.00979C1.85856 6.24086 2.28104 6.72204 2.56764 7.04847L2.56765 7.04847C2.65544 7.14847 2.73049 7.23394 2.77828 7.29325L5.32753 10.4142C5.37596 10.4763 5.41471 10.5199 5.45527 10.5656L5.45527 10.5656C5.49243 10.6075 5.53111 10.6511 5.58017 10.7121C5.60788 10.7467 5.63437 10.7765 5.65918 10.8045C5.7324 10.8871 5.79101 10.9531 5.82342 11.0744Z" fill="white"/>
</svg>
