<svg width="38" height="25" viewBox="0 0 38 25" fill="none" xmlns="http://www.w3.org/2000/svg">
<path fill-rule="evenodd" clip-rule="evenodd" d="M1.23944 0H36.4717C37.0005 0 37.428 0.428138 37.428 0.956241V23.1162C37.428 23.6443 37.0005 24.0724 36.4717 24.0724H1.23944C0.710684 24.0724 0.283203 23.6443 0.283203 23.1162V0.956241C0.283203 0.428138 0.710684 0 1.23944 0ZM7.12355 7.2744H3.15916L3.12628 7.46249C6.21137 8.2096 8.25275 10.0142 9.09982 12.1832L8.23763 8.03663C8.089 7.46512 7.65823 7.29479 7.12355 7.2744ZM5.66617 8.90804L7.95615 16.7316L10.6624 16.7296L14.6893 7.3645H11.9797L9.47535 13.7629L9.20834 12.7968C8.71443 11.6334 7.3123 9.96161 5.66617 8.90804ZM14.1237 16.7382H16.6807L18.2808 7.35464H15.7225L14.1237 16.7382ZM18.2814 16.3778C18.8799 16.6402 19.9841 16.8671 21.1304 16.8789C23.8196 16.8789 25.5644 15.6215 25.5841 13.6748C25.5933 12.6074 24.9113 11.7952 23.4362 11.1257C22.5418 10.6903 21.9946 10.4009 21.9999 9.96161C21.9999 9.57162 22.4642 9.15466 23.4651 9.15466C24.3023 9.14151 24.9081 9.32434 25.3789 9.51374L25.6098 9.62226L25.955 7.58811C25.4487 7.39804 24.6549 7.19417 23.6644 7.19417C21.137 7.19417 19.3561 8.46674 19.3423 10.2904C19.3265 11.638 20.6115 12.3904 21.5823 12.8389C22.578 13.2992 22.912 13.5926 22.9074 14.0036C22.9002 14.6323 22.113 14.9197 21.3784 14.9197C20.3544 14.9197 19.8105 14.7777 18.9707 14.4271L18.6412 14.2778L18.2814 16.3778ZM31.901 15.336C31.9786 15.6635 32.212 16.7421 32.212 16.7421L34.5849 16.7415L32.5152 7.3645H30.5396C29.9267 7.3645 29.4696 7.53221 29.2 8.14317L25.4033 16.7421H28.0885C28.0885 16.7421 28.5265 15.5853 28.6258 15.3321C28.7638 15.3321 29.4139 15.333 30.1027 15.3339C30.8787 15.3349 31.7038 15.336 31.901 15.336ZM30.7201 9.89551L30.8924 10.7044C30.8924 10.7044 31.3823 12.9438 31.4849 13.414H29.3613C29.5718 12.8741 30.38 10.7912 30.38 10.7912C30.3732 10.8031 30.4198 10.6822 30.4846 10.5141C30.5568 10.327 30.6515 10.0815 30.7201 9.89551Z" fill="white"/>
</svg>
