<svg width="37" height="24" viewBox="0 0 37 24" fill="none" xmlns="http://www.w3.org/2000/svg">
<path fill-rule="evenodd" clip-rule="evenodd" d="M2 0C0.89543 0 0 0.89543 0 2V22C0 23.1046 0.895432 24 2 24H35C36.1046 24 37 23.1046 37 22V2C37 0.895431 36.1046 0 35 0H2ZM33.1676 16.0283H33.0784V16.1624H33.0782V16.2183H33.0784V16.406H33.0127V15.9728H33.1777C33.2802 15.9728 33.331 16.0103 33.331 16.0961C33.331 16.1734 33.2819 16.2071 33.2184 16.2151L33.3417 16.406H33.268L33.1538 16.2183H33.0784V16.1624H33.1565C33.2124 16.1624 33.262 16.1584 33.262 16.0918C33.262 16.0384 33.2132 16.0283 33.1676 16.0283ZM24.2529 3.39381C29.1647 3.39381 33.1466 7.37571 33.1466 12.2877C33.1466 17.1995 29.1648 21.1814 24.2529 21.1814C22.1818 21.1844 20.175 20.4617 18.5815 19.1387C17.0406 20.4201 15.0548 21.1814 12.8939 21.1814C7.98206 21.1814 4 17.1995 4 12.2877C4 7.37586 7.98206 3.39381 12.8939 3.39381C15.0546 3.39381 17.0404 4.15495 18.5815 5.43646C20.175 4.11344 22.1817 3.39067 24.2529 3.39381ZM24.2527 4.047C28.8037 4.047 32.4933 7.73651 32.4933 12.2876C32.4933 16.8386 28.8036 20.5278 24.2527 20.5276C22.2776 20.5276 20.4811 19.8366 19.0617 18.6781C20.144 17.6331 20.9704 16.3244 21.4138 14.8452H20.7293C20.3003 16.1604 19.5464 17.3208 18.5668 18.2516C17.5804 17.3125 16.8422 16.1435 16.4182 14.8492H15.7333C16.1705 16.3012 16.972 17.6173 18.0614 18.6722C16.6459 19.8191 14.8572 20.5276 12.8935 20.5276C8.34262 20.5276 4.65312 16.8385 4.65312 12.2874C4.65312 7.73635 8.34262 4.04684 12.8935 4.04684C14.8572 4.04684 16.6457 4.75573 18.0614 5.90225C16.972 6.95733 16.1706 8.2735 15.7333 9.72564L16.4182 9.72548C16.8424 8.43122 17.5805 7.26219 18.5668 6.32285C19.5464 7.25402 20.3003 8.41444 20.7293 9.72959H21.4138C20.9705 8.25041 20.144 6.94158 19.0617 5.89657C20.4811 4.73804 22.2776 4.047 24.2527 4.047ZM23.5963 11.3929C23.3834 11.2653 23.2349 11.2443 22.9586 11.2443C22.6823 11.2443 22.0656 11.5084 21.9488 12.254C21.8106 13.1362 22.4166 13.5719 23.2668 13.2851L23.5113 14.0292C23.235 14.1566 22.9587 14.2204 22.5015 14.2204C21.6406 14.2204 20.7053 13.4553 21.1302 11.9031C21.4437 10.7595 22.4275 10.3406 23.0011 10.3618C23.6814 10.387 23.9261 10.6169 24.1386 10.8509L23.5963 11.3929ZM30.6652 11.5206C30.6238 11.4903 30.5867 11.4514 30.5476 11.4104C30.4359 11.2933 30.308 11.1592 30.0168 11.1592C29.9924 11.1592 29.9673 11.159 29.9416 11.1587L29.9414 11.1587C29.4845 11.1543 28.8259 11.148 28.4435 12.4559C28.1737 13.3798 28.7198 14.2204 29.315 14.2204C29.5916 14.2099 29.8679 14.0929 30.0378 13.9761L30.1445 14.2204H31.0372L31.7599 10.3515H30.8883L30.6652 11.5206ZM27.0059 11.1688L26.4369 14.2183H27.2745L27.5323 12.8223C27.7666 11.9558 28.1271 11.9604 28.3373 11.963L28.3695 11.9633L28.595 11.1688C28.1766 11.1688 27.9292 11.319 27.8007 11.4694L27.7254 11.1688H27.0059ZM16.2401 10.3941H15.4109L14.8371 13.2852C14.6774 14.1141 15.3048 14.2312 15.496 14.2312C15.6873 14.2312 15.9317 14.1992 16.1125 14.0824L16.1657 13.466C15.6873 13.5404 15.6659 13.3279 15.7085 13.0939L15.9423 11.861H16.3675L16.5162 11.202H16.0699L16.2401 10.3941ZM17.8665 11.1594C19.3228 11.1594 19.0994 12.3709 19.0039 12.8601H17.1967C17.104 13.5313 17.6027 13.5304 17.9333 13.5298L17.9621 13.5298C18.2917 13.5298 18.7701 13.4872 18.8975 13.4554L18.7701 14.0824C18.568 14.1888 18.0577 14.2312 17.7069 14.2205C16.272 14.2205 16.2934 12.8708 16.3252 12.6793L16.3285 12.6585C16.3686 12.4079 16.5682 11.1594 17.8665 11.1594ZM14.8158 11.2655L14.6246 11.882C14.3906 11.8181 13.9974 11.8181 13.806 11.8397C13.4977 11.9247 13.6252 12.2117 13.7953 12.2859C13.9655 12.3606 14.2313 12.5091 14.3906 12.6156C14.5499 12.7112 14.7451 12.9138 14.6775 13.3596C14.5456 14.2326 13.6383 14.2234 13.381 14.2208L13.349 14.2206C13.0618 14.2206 12.7537 14.2206 12.371 14.1142L12.4879 13.4872C12.8308 13.6015 13.2684 13.5776 13.4816 13.5659H13.4816C13.5261 13.5635 13.5607 13.5616 13.5828 13.5616C13.861 13.5616 13.8995 13.2097 13.6892 13.1045C13.6304 13.0751 13.5703 13.0406 13.5037 13.0023L13.5037 13.0023C13.3776 12.9299 13.228 12.8439 13.0193 12.7535C12.8218 12.6681 12.6154 12.4348 12.7324 11.8715C12.8827 11.147 13.8517 11.1483 13.9916 11.1485L13.9972 11.1485C14.012 11.1485 14.0297 11.148 14.0503 11.1474C14.1933 11.1434 14.4719 11.1355 14.8158 11.2655ZM9.937 10.5426L9.24612 14.2204H8.38504L8.87415 11.6269L7.71547 14.2204H6.92875L6.70535 11.5631L6.19524 14.2204H5.36621L6.07841 10.5426H7.40713L7.56643 12.7749L8.57655 10.5426H9.937ZM10.0324 11.9138L10.1601 11.2549C10.6097 11.1667 10.8837 11.159 11.1095 11.1527C11.1561 11.1514 11.2006 11.1501 11.2443 11.1482C12.6366 11.1482 12.4988 12.1476 12.4137 12.562L12.084 14.2201H11.3082L11.2018 14.0502C11.0529 14.1563 10.9361 14.2097 10.5107 14.231C10.0854 14.2523 9.54356 13.9335 9.63924 13.306C9.84282 12.1948 10.9987 12.2295 11.4336 12.2425C11.4978 12.2444 11.5464 12.2459 11.5737 12.2431C11.6602 11.8301 11.4081 11.8253 11.1468 11.8202H11.1468C11.119 11.8197 11.0911 11.8191 11.0635 11.8181C10.8463 11.8102 10.4829 11.857 10.2314 11.8893L10.2314 11.8893L10.2313 11.8894L10.2313 11.8894L10.2313 11.8894L10.2313 11.8894L10.2313 11.8894L10.2313 11.8894C10.1506 11.8997 10.0815 11.9086 10.0324 11.9138ZM24.0635 11.9137L24.1909 11.2549C24.6405 11.1667 24.9145 11.159 25.1403 11.1526L25.1405 11.1526C25.187 11.1513 25.2315 11.1501 25.2751 11.1482C26.6676 11.1482 26.5294 12.1476 26.4447 12.562L26.1147 14.2201H25.3392L25.2328 14.0502C25.0839 14.1563 24.9671 14.2096 24.5417 14.231C24.1164 14.2523 23.5744 13.9335 23.6702 13.3059C23.8739 12.1948 25.0297 12.2294 25.4645 12.2425L25.4645 12.2425L25.4646 12.2425C25.5288 12.2444 25.5772 12.2459 25.6046 12.2431C25.6913 11.8301 25.4391 11.8252 25.1776 11.8202C25.1498 11.8196 25.1219 11.8191 25.0943 11.8181C24.8771 11.8102 24.5132 11.857 24.2618 11.8894C24.1814 11.8997 24.1124 11.9086 24.0635 11.9137ZM19.0281 14.2204L19.5914 11.2018H20.3038L20.3781 11.4994C20.5056 11.3503 20.75 11.2018 21.1644 11.2018L20.9519 11.9989C20.9465 11.9989 20.9411 11.9989 20.9354 11.9988C20.9286 11.9987 20.9216 11.9986 20.9143 11.9985C20.7042 11.9948 20.3422 11.9884 20.1123 12.8387L19.8573 14.2204H19.0281ZM17.2502 12.3074H18.2813C18.3345 12.0097 18.2388 11.7547 17.9093 11.7547C17.5797 11.7545 17.346 11.9247 17.2502 12.3074ZM11.4361 12.86C11.4205 12.8576 11.4027 12.8544 11.383 12.8508C11.2288 12.8228 10.9596 12.774 10.7238 12.9344C10.4579 13.1151 10.3837 13.4339 10.6602 13.5403C10.9262 13.6426 11.3188 13.4663 11.3724 13.1896L11.4361 12.86ZM30.3142 12.0203C30.4061 12.1428 30.4527 12.4881 30.3676 12.7644C30.2185 13.1363 30.0275 13.3809 29.719 13.3809C29.432 13.3809 29.177 13.0512 29.2938 12.6155C29.4727 11.9491 30.0592 11.6802 30.3142 12.0203ZM25.4665 12.86C25.4509 12.8576 25.4331 12.8544 25.4134 12.8508C25.2592 12.8228 24.99 12.774 24.7542 12.9344C24.4883 13.1151 24.4141 13.4339 24.6907 13.5403C24.9569 13.6426 25.3494 13.4663 25.4027 13.1896L25.4665 12.86Z" fill="white"/>
</svg>
